HIERARCHY
ROOT Hips
{
	OFFSET -0.001795 -0.223333 0.028219
	CHANNELS 6 Xposition Yposition Zposition Zrotation Yrotation Xrotation 
	JOINT LeftUpLeg
	{
		OFFSET 0.069520 -0.091406 -0.006815
		CHANNELS 3 Zrotation Yrotation Xrotation
		JOINT LeftLeg
		{
			OFFSET 0.034277 -0.375199 -0.004496
			CHANNELS 3 Zrotation Yrotation Xrotation
			JOINT LeftFoot
			{
				OFFSET -0.013596 -0.397961 -0.043693
				CHANNELS 3 Zrotation Yrotation Xrotation
				JOINT LeftToe
				{
					OFFSET 0.026358 -0.055791 0.119288
					CHANNELS 3 Zrotation Yrotation Xrotation
					End Site
					{
						OFFSET 0.000000 0.000000 0.000000
					}
				}
			}
		}
	}
	JOINT RightUpLeg
	{
		OFFSET -0.067670 -0.090522 -0.004320
		CHANNELS 3 Zrotation Yrotation Xrotation
		JOINT RightLeg
		{
			OFFSET -0.038290 -0.382569 -0.008850
			CHANNELS 3 Zrotation Yrotation Xrotation
			JOINT RightFoot
			{
				OFFSET 0.015774 -0.398415 -0.042312
				CHANNELS 3 Zrotation Yrotation Xrotation
				JOINT RightToe
				{
					OFFSET -0.025372 -0.048144 0.123348
					CHANNELS 3 Zrotation Yrotation Xrotation
					End Site
					{
						OFFSET 0.000000 0.000000 0.000000
					}
				}
			}
		}
	}
	JOINT Spine
	{
		OFFSET -0.002533 0.108963 -0.026696
		CHANNELS 3 Zrotation Yrotation Xrotation
		JOINT Spine1
		{
			OFFSET 0.005487 0.135180 0.001092
			CHANNELS 3 Zrotation Yrotation Xrotation
			JOINT Spine2
			{
				OFFSET 0.001457 0.052922 0.025425
				CHANNELS 3 Zrotation Yrotation Xrotation
				JOINT Neck
				{
					OFFSET -0.002778 0.213870 -0.042857
					CHANNELS 3 Zrotation Yrotation Xrotation
					JOINT Head
					{
						OFFSET 0.005152 0.064970 0.051349
						CHANNELS 3 Zrotation Yrotation Xrotation
						End Site
						{
							OFFSET 0.000000 0.000000 0.000000
						}
					}
				}
				JOINT LeftShoulder
				{
					OFFSET 0.078845 0.121749 -0.034090
					CHANNELS 3 Zrotation Yrotation Xrotation
					JOINT LeftArm
					{
						OFFSET 0.090977 0.030469 -0.008868
						CHANNELS 3 Zrotation Yrotation Xrotation
						JOINT LeftForeArm
						{
							OFFSET 0.259612 -0.012772 -0.027456
							CHANNELS 3 Zrotation Yrotation Xrotation
							JOINT LeftHand
							{
								OFFSET 0.249234 0.008986 -0.001171
								CHANNELS 3 Zrotation Yrotation Xrotation
								End Site
								{
									OFFSET 0.000000 0.000000 0.000000
								}
							}
						}
					}
				}
				JOINT RightShoulder
				{
					OFFSET -0.081759 0.118833 -0.038615
					CHANNELS 3 Zrotation Yrotation Xrotation
					JOINT RightArm
					{
						OFFSET -0.096012 0.032551 -0.009143
						CHANNELS 3 Zrotation Yrotation Xrotation
						JOINT RightForeArm
						{
							OFFSET -0.253742 -0.013329 -0.021401
							CHANNELS 3 Zrotation Yrotation Xrotation
							JOINT RightHand
							{
								OFFSET -0.255298 0.007772 -0.005559
								CHANNELS 3 Zrotation Yrotation Xrotation
								End Site
								{
									OFFSET 0.000000 0.000000 0.000000
								}
							}
						}
					}
				}
			}
		}
	}
}
MOTION
Frames: 7
Frame Time: 0.050000
0.000000 0.934866 0.000000 2.614682 3.685712 26.848907 1.401901 -2.113834 -23.982504 1.015091 -0.002253 -2.089775 0.662013 5.176600 8.699804 0.000000 0.000000 0.000000 -4.899486 1.904984 -35.055751 0.160795 0.185421 5.911642 3.046888 5.232748 4.998244 0.000000 0.000000 0.000000 7.340283 -3.493821 22.796988 1.696082 -0.567310 -3.776491 2.483342 5.156286 11.701654 11.399746 -2.514779 -29.619055 0.000000 0.000000 0.000000 -21.013590 -16.789010 6.191045 -49.230161 -15.395064 0.297345 1.384390 -54.336046 1.151242 0.000000 0.000000 0.000000 11.795804 20.498093 10.946420 22.368009 45.191322 3.937954 -32.371104 21.131995 -3.772322 0.000000 0.000000 0.000000 
-0.002136 0.935666 -0.000969 2.535029 3.955131 27.208465 2.444753 -2.039295 -24.505841 0.672944 0.068728 -3.242703 -1.213921 2.371391 10.107189 0.000000 0.000000 0.000000 -4.058807 2.111414 -36.205915 -0.187329 0.215637 5.235350 3.828413 5.293165 8.240255 0.000000 0.000000 0.000000 7.408990 -3.641596 23.556852 2.627676 -1.073019 -1.534096 1.130232 3.872228 9.115816 11.293691 -2.835872 -27.658845 0.000000 0.000000 0.000000 -22.333936 -13.014323 4.169236 -46.821043 -13.772009 -0.179009 -1.538979 -53.351772 2.711264 0.000000 0.000000 0.000000 12.016766 23.533020 12.452179 20.247176 46.379493 3.435644 -32.757947 18.400801 -3.201675 0.000000 0.000000 0.000000 
-0.004131 0.933522 -0.002876 2.307208 4.490510 27.304587 3.273481 -2.018617 -25.298143 0.037176 0.073359 -2.215775 -1.369594 0.754830 7.025028 0.000000 0.000000 0.000000 -3.798032 2.111303 -35.820272 -0.302961 0.204763 4.506111 3.787570 5.913168 7.003045 0.000000 0.000000 0.000000 7.018398 -3.645186 24.189743 1.408371 -0.624434 -0.384819 2.259686 3.587088 7.017620 10.562324 -3.109451 -23.918353 0.000000 0.000000 0.000000 -22.800929 -12.880366 4.148974 -46.904310 -13.593866 -0.067218 -2.208920 -49.708138 2.832901 0.000000 0.000000 0.000000 14.183063 24.531507 13.477460 15.033604 45.802852 1.504950 -28.172057 16.540901 -2.345693 0.000000 0.000000 0.000000 
-0.006078 0.934629 -0.005263 2.296692 5.238576 27.557699 3.496439 -2.103973 -26.253712 0.787512 0.033705 -2.518300 -2.451811 -0.999357 7.532767 0.000000 0.000000 0.000000 -3.451142 2.138240 -36.705187 0.221192 0.127191 4.539156 4.028433 5.597853 8.716630 0.000000 0.000000 0.000000 7.122403 -3.893944 25.287528 1.131053 -0.530085 -0.043810 1.983241 3.475206 6.214192 10.302990 -2.919694 -23.958744 0.000000 0.000000 0.000000 -22.489553 -13.141273 4.230590 -45.991465 -13.106352 -0.169144 -1.293861 -48.323203 2.291629 0.000000 0.000000 0.000000 13.812139 26.740033 14.743873 12.231459 45.736446 0.565965 -27.462728 14.475985 -1.886177 0.000000 0.000000 0.000000 
-0.007439 0.934744 -0.008240 2.550999 6.459355 27.613855 3.362282 -2.208814 -26.422524 0.594639 0.068746 -3.067678 -2.915588 -1.529421 7.971260 0.000000 0.000000 0.000000 -3.528247 1.956711 -36.274508 0.401523 0.055799 3.162671 3.776398 4.788957 9.502978 0.000000 0.000000 0.000000 6.980976 -4.027590 25.900614 0.759463 -0.364172 -0.361728 2.118104 3.103235 6.328773 9.882994 -2.947784 -22.433359 0.000000 0.000000 0.000000 -24.068588 -13.543144 4.404491 -43.485447 -12.781927 -0.266969 -2.218047 -46.591971 2.617086 0.000000 0.000000 0.000000 16.209424 28.724366 16.690354 6.655954 43.880530 -1.465586 -24.225019 12.873057 -1.408427 0.000000 0.000000 0.000000 
-0.008228 0.935419 -0.011423 2.576729 7.531966 27.903393 3.316768 -2.321991 -26.905874 0.545570 0.098248 -3.771569 -3.761228 -2.410984 9.081940 0.000000 0.000000 0.000000 -3.667412 1.799208 -36.804501 0.618024 0.015524 2.897880 3.313217 3.983003 9.357941 0.000000 0.000000 0.000000 7.212774 -4.212554 26.012059 0.363315 -0.223671 0.009237 1.925166 4.148219 5.639532 10.219978 -3.022090 -21.929849 0.000000 0.000000 0.000000 -24.683087 -14.585451 4.420251 -42.407797 -11.705506 -0.378460 -3.070975 -45.896915 2.735555 0.000000 0.000000 0.000000 15.657834 28.730464 16.996012 6.395973 43.163144 -1.481350 -23.572373 13.131142 -1.407415 0.000000 0.000000 0.000000 
-0.008291 0.935174 -0.014581 2.523152 8.170452 27.535503 3.643266 -2.343642 -27.263335 0.134545 0.116026 -3.681759 -3.698831 -1.870284 9.721108 0.000000 0.000000 0.000000 -3.610563 1.734087 -36.778236 0.870758 -0.023825 2.798449 2.701892 2.772269 9.289289 0.000000 0.000000 0.000000 6.952445 -4.189687 26.209120 -0.153976 -0.022567 0.288874 2.069567 4.488259 5.529779 9.861961 -2.966662 -20.870006 0.000000 0.000000 0.000000 -24.185456 -14.015148 3.804297 -42.150466 -10.246699 -0.784075 -4.297528 -46.815913 3.186392 0.000000 0.000000 0.000000 16.573780 29.374856 17.863528 5.952317 42.369708 -1.638401 -24.042845 15.072223 -1.785891 0.000000 0.000000 0.000000 
